<svg width="165" height="158" viewBox="0 0 165 158" fill="none" xmlns="http://www.w3.org/2000/svg">
<path d="M36.87 41.12C30.2934 44.895 24.864 50.3832 21.16 57C17.3266 63.7342 15.3396 71.3614 15.4 79.11C15.3085 84.7801 16.3844 90.4084 18.5606 95.645C20.7368 100.882 23.9668 105.615 28.05 109.55C36.4767 117.937 46.81 122.13 59.05 122.13C65.2265 122.2 71.3467 120.949 77 118.46V109.17L76.56 109.44C71.1428 112.539 65.0009 114.147 58.76 114.1C54.1692 114.111 49.6218 113.211 45.3806 111.454C41.1395 109.697 37.2887 107.116 34.0509 103.862C30.8131 100.607 28.2524 96.743 26.517 92.4928C24.7815 88.2427 23.9056 83.6907 23.94 79.1C23.8681 72.7991 25.4581 66.5906 28.55 61.1C31.5891 55.7169 36.0207 51.2508 41.38 48.17C46.6391 45.0452 52.6426 43.3941 58.76 43.39C64.9664 43.3894 71.0613 45.0391 76.42 48.17L77 48.53V39.08C71.1261 36.5488 64.7855 35.2814 58.39 35.36C50.8304 35.3187 43.3983 37.308 36.87 41.12V41.12Z" fill="black"/>
<path d="M150.1 38H137.2L101.87 71.19C100.505 62.3139 96.2687 54.1297 89.81 47.89C88.3055 46.3991 86.6982 45.0157 85 43.75V55C86.6557 56.8017 88.1077 58.7803 89.33 60.9C92.4201 66.3142 94.0049 72.4567 93.92 78.69C93.999 84.9892 92.4158 91.1978 89.33 96.69C88.1128 98.8438 86.6606 100.856 85 102.69V113.69C86.7068 112.394 88.3238 110.984 89.84 109.47C96.3688 103.103 100.621 94.7638 101.94 85.74L137.2 118.85H150.1L106.82 78.45L150.1 38Z" fill="black"/>
</svg>
